<svg width="38" height="38" viewBox="0 0 38 38" fill="none" xmlns="http://www.w3.org/2000/svg">
<path d="M13.0004 5H7.40039C5.16018 5 4.03924 5 3.18359 5.43597C2.43095 5.81947 1.81947 6.43095 1.43597 7.18359C1 8.03924 1 9.16018 1 11.4004V30.6004C1 32.8406 1 33.9601 1.43597 34.8158C1.81947 35.5684 2.43095 36.181 3.18359 36.5645C4.0384 37 5.15799 37 7.39382 37H26.6062C28.842 37 29.96 37 30.8148 36.5645C31.5674 36.181 32.181 35.5678 32.5645 34.8152C33 33.9604 33 32.842 33 30.6062V25M25 7L13 19V25H19L31 13M25 7L31 1L37 7L31 13M25 7L31 13" stroke="black" stroke-width="1.4" stroke-linecap="round" stroke-linejoin="round"/>
</svg>
