<svg width="38" height="34" viewBox="0 0 38 34" fill="none" xmlns="http://www.w3.org/2000/svg">
<path d="M13.6763 24.9809C19.9891 24.6303 25 19.4005 25 13C25 6.37258 19.6274 1 13 1C6.37258 1 1 6.37258 1 13C1 15.3614 1.68188 17.5634 2.85978 19.4199L2.01172 21.9641L2.01037 21.9678C1.68555 22.9423 1.52307 23.4297 1.63877 23.7542C1.73959 24.0369 1.96337 24.2598 2.24609 24.3606C2.56945 24.4759 3.05349 24.3145 4.02138 23.9919L4.03516 23.9877L6.58008 23.1396C8.4366 24.3175 10.6387 24.9996 13.0001 24.9996C13.227 24.9996 13.4525 24.9933 13.6763 24.9809ZM13.6763 24.9809C13.6764 24.9814 13.6761 24.9804 13.6763 24.9809ZM13.6763 24.9809C15.3181 29.6518 19.7682 33.0003 25.0003 33.0003C27.3617 33.0003 29.5633 32.3176 31.4197 31.1396L33.9641 31.9877L33.969 31.9887C34.9433 32.3135 35.4317 32.4762 35.7561 32.3606C36.0388 32.2597 36.2597 32.0369 36.3606 31.7541C36.4764 31.4292 36.3144 30.9412 35.9887 29.9641L35.1406 27.4199L35.4247 26.9492C36.4276 25.1959 36.9989 23.1646 36.9989 21C36.9989 14.3726 31.6274 9 25 9L24.5508 9.00828L24.3242 9.01935" stroke="black" stroke-width="1.4" stroke-linecap="round" stroke-linejoin="round"/>
</svg>
