<svg width="38" height="30" viewBox="0 0 38 30" fill="none" xmlns="http://www.w3.org/2000/svg">
<path d="M1 13V22.6004C1 24.8406 1 25.9601 1.43597 26.8158C1.81947 27.5684 2.43095 28.181 3.18359 28.5645C4.0384 29 5.15799 29 7.39382 29H30.6062C32.842 29 33.96 29 34.8148 28.5645C35.5674 28.181 36.181 27.5684 36.5645 26.8158C37 25.961 37 24.843 37 22.6072V13M1 13V9M1 13H37M1 9V7.40039C1 5.16018 1 4.03924 1.43597 3.18359C1.81947 2.43095 2.43095 1.81947 3.18359 1.43597C4.03924 1 5.16018 1 7.40039 1H30.6004C32.8406 1 33.9591 1 34.8148 1.43597C35.5674 1.81947 36.181 2.43095 36.5645 3.18359C37 4.0384 37 5.15799 37 7.39382V9M1 9H37M9 21H17M37 13V9" stroke="#FF4545" stroke-width="1.4" stroke-linecap="round" stroke-linejoin="round"/>
</svg>
