<svg width="34" height="34" viewBox="0 0 34 34" fill="none" xmlns="http://www.w3.org/2000/svg">
<path d="M31 31L25 25M13.0004 33H7.39385C5.15801 33 4.0384 33 3.18359 32.5645C2.43095 32.181 1.81947 31.5684 1.43597 30.8158C1 29.9601 1 28.8406 1 26.6004V7.40039C1 5.16018 1 4.03924 1.43597 3.18359C1.81947 2.43095 2.43095 1.81947 3.18359 1.43597C4.03924 1 5.16018 1 7.40039 1H26.6004C28.8406 1 29.9591 1 30.8148 1.43597C31.5674 1.81947 32.181 2.43095 32.5645 3.18359C33 4.0384 33 5.15799 33 7.39382V13.0004M20 27C16.134 27 13 23.866 13 20C13 16.134 16.134 13 20 13C23.866 13 27 16.134 27 20C27 23.866 23.866 27 20 27Z" stroke="black" stroke-width="1.4" stroke-linecap="round" stroke-linejoin="round"/>
</svg>
