<svg width="48" height="48" viewBox="0 0 48 48" fill="none" xmlns="http://www.w3.org/2000/svg">
<path d="M17.6437 34.6117C15.5062 40.968 7.03125 40.968 7.03125 40.968C7.03125 40.968 7.03125 32.493 13.3875 30.3555" stroke="#ff4545" stroke-width="1.4" stroke-linecap="round" stroke-linejoin="round"/>
<path d="M36.7309 19.7615L23.9996 32.4928L15.5059 23.999L28.2371 11.2678C33.0559 6.44905 37.8746 6.5053 39.9371 6.8053C40.2554 6.84776 40.5508 6.99377 40.7778 7.22081C41.0049 7.44784 41.1509 7.74329 41.1934 8.06155C41.4934 10.124 41.5496 14.9428 36.7309 19.7615Z" stroke="#ff4545" stroke-width="1.4" stroke-linecap="round" stroke-linejoin="round"/>
<path d="M34.6125 21.8828V33.9953C34.6069 34.391 34.4451 34.7684 34.1625 35.0453L28.1062 41.1203C27.9141 41.3122 27.6735 41.4484 27.41 41.5143C27.1466 41.5801 26.8702 41.5732 26.6103 41.4943C26.3505 41.4154 26.1169 41.2674 25.9346 41.0662C25.7522 40.8649 25.628 40.6179 25.575 40.3516L24 32.4953" stroke="#ff4545" stroke-width="1.4" stroke-linecap="round" stroke-linejoin="round"/>
<path d="M26.1196 13.3867H14.0071C13.6114 13.3924 13.234 13.5541 12.9571 13.8367L6.88209 19.893C6.69017 20.0851 6.55402 20.3257 6.48815 20.5892C6.42228 20.8527 6.42917 21.1291 6.50809 21.3889C6.58701 21.6488 6.73499 21.8823 6.93625 22.0646C7.1375 22.247 7.38448 22.3713 7.65084 22.4242L15.5071 23.9992" stroke="#ff4545" stroke-width="1.4" stroke-linecap="round" stroke-linejoin="round"/>
</svg>
