<svg width="42" height="35" viewBox="0 0 42 35" fill="none" xmlns="http://www.w3.org/2000/svg">
<path d="M1 33.6847H5M5 33.6847H17M5 33.6847V16.589C5 15.5203 5 14.9857 5.12994 14.4884C5.2451 14.0477 5.43558 13.6307 5.69141 13.2539C5.98008 12.8286 6.38128 12.476 7.18555 11.7722L16.7887 3.36945C18.2797 2.06485 19.0252 1.41251 19.8648 1.16421C20.6052 0.945262 21.3944 0.945262 22.1348 1.16421C22.975 1.4127 23.7216 2.06565 25.2148 3.37222L34.8148 11.7722C35.6191 12.4759 36.0205 12.8286 36.3091 13.2539C36.565 13.6307 36.754 14.0477 36.8691 14.4884C36.9991 14.9857 37 15.5203 37 16.589V33.6847M17 33.6847H25M17 33.6847V25.6847C17 23.4756 18.7909 21.6847 21 21.6847C23.2091 21.6847 25 23.4756 25 25.6847V33.6847M25 33.6847H37M37 33.6847H41" stroke="black" stroke-width="1.4" stroke-linecap="round" stroke-linejoin="round"/>
</svg>
