<svg width="28" height="28" viewBox="0 0 28 28" fill="none" xmlns="http://www.w3.org/2000/svg">
<path d="M14 5.25V2.625" stroke="white" stroke-width="1.4" stroke-linecap="round" stroke-linejoin="round"/>
<path d="M24.5 17.5005C22.9031 23.0786 15.5094 25.0255 14.1969 25.3317C14.0677 25.3646 13.9323 25.3646 13.8031 25.3317C12.4906 25.0255 5.09688 23.0786 3.5 17.5005V13.7599C3.49998 13.5756 3.55813 13.3961 3.66615 13.2468C3.77417 13.0976 3.92654 12.9862 4.10156 12.9286L13.7266 9.713C13.9047 9.65817 14.0953 9.65817 14.2734 9.713L23.8984 12.9286C24.0735 12.9862 24.2258 13.0976 24.3339 13.2468C24.4419 13.3961 24.5 13.5756 24.5 13.7599V17.5005Z" stroke="white" stroke-width="1.4" stroke-linecap="round" stroke-linejoin="round"/>
<path d="M14 18.3742V9.66797" stroke="white" stroke-width="1.4" stroke-linecap="round" stroke-linejoin="round"/>
<path d="M6.125 12.25V6.125C6.125 5.89294 6.21719 5.67038 6.38128 5.50628C6.54538 5.34219 6.76794 5.25 7 5.25H21C21.2321 5.25 21.4546 5.34219 21.6187 5.50628C21.7828 5.67038 21.875 5.89294 21.875 6.125V12.25" stroke="white" stroke-width="1.4" stroke-linecap="round" stroke-linejoin="round"/>
</svg>
