<svg width="24" height="24" viewBox="0 0 24 24" fill="none" xmlns="http://www.w3.org/2000/svg">
<path d="M12 4.5V2.25" stroke="#222222" stroke-width="1.4" stroke-linecap="round" stroke-linejoin="round"/>
<path d="M21 14.9998C19.6312 19.781 13.2938 21.4498 12.1688 21.7123C12.058 21.7405 11.942 21.7405 11.8312 21.7123C10.7062 21.4498 4.36875 19.781 3 14.9998V11.7935C2.99999 11.6356 3.04983 11.4817 3.14241 11.3538C3.235 11.2258 3.36561 11.1304 3.51562 11.081L11.7656 8.3248C11.9183 8.2778 12.0817 8.2778 12.2344 8.3248L20.4844 11.081C20.6344 11.1304 20.765 11.2258 20.8576 11.3538C20.9502 11.4817 21 11.6356 21 11.7935V14.9998Z" stroke="#222222" stroke-width="1.4" stroke-linecap="round" stroke-linejoin="round"/>
<path d="M12 15.7501V8.2876" stroke="#222222" stroke-width="1.4" stroke-linecap="round" stroke-linejoin="round"/>
<path d="M5.25 10.5V5.25C5.25 5.05109 5.32902 4.86032 5.46967 4.71967C5.61032 4.57902 5.80109 4.5 6 4.5H18C18.1989 4.5 18.3897 4.57902 18.5303 4.71967C18.671 4.86032 18.75 5.05109 18.75 5.25V10.5" stroke="#222222" stroke-width="1.4" stroke-linecap="round" stroke-linejoin="round"/>
</svg>
