<svg width="20" height="14" viewBox="0 0 20 14" fill="none" xmlns="http://www.w3.org/2000/svg">
<rect width="20" height="14" fill="#EE1C25"/>
<path fill-rule="evenodd" clip-rule="evenodd" d="M6.46437 6.19155L6.02063 6.31037L6.29581 5.93888L6.04693 5.54889L6.48139 5.69871L6.77131 5.33887L6.76464 5.80295L7.1927 5.97055L6.75412 6.10754L6.72876 6.57097L6.46437 6.19155Z" fill="#FFFF00"/>
<path fill-rule="evenodd" clip-rule="evenodd" d="M7.82071 4.92303L7.44393 5.18814L7.57685 4.74389L7.21106 4.46348L7.67 4.45403L7.82071 4.01562L7.97143 4.45403L8.43036 4.46348L8.06457 4.74389L8.1975 5.18814L7.82071 4.92303Z" fill="#FFFF00"/>
<path fill-rule="evenodd" clip-rule="evenodd" d="M7.96332 2.90908L7.72575 3.30622L7.66848 2.84572L7.22152 2.73999L7.63697 2.54261L7.5983 2.08012L7.91234 2.41864L8.3354 2.23854L8.11404 2.64514L8.41417 2.99631L7.96332 2.90908Z" fill="#FFFF00"/>
<path fill-rule="evenodd" clip-rule="evenodd" d="M6.45641 1.59976L6.00884 1.70284L6.29667 1.34129L6.0614 0.942756L6.49043 1.10782L6.79259 0.758426L6.76991 1.22199L7.19192 1.40459L6.74888 1.52603L6.70754 1.98827L6.45641 1.59976Z" fill="#FFFF00"/>
<path fill-rule="evenodd" clip-rule="evenodd" d="M3.26878 4.0816L2.13842 4.87691L2.5372 3.54417L1.43983 2.70295L2.81664 2.67458L3.26878 1.35938L3.72092 2.67458L5.09773 2.70295L4.00036 3.54417L4.39914 4.87691L3.26878 4.0816Z" fill="#FFFF00"/>
</svg>
