<svg width="24" height="24" viewBox="0 0 24 24" fill="none" xmlns="http://www.w3.org/2000/svg">
<path d="M16.5 6H7.5C6.67157 6 6 6.6268 6 7.4L5 18.6C5 19.3732 5.67157 20 6.5 20H17.5C18.3284 20 19 19.3732 19 18.6L18 7.4C18 6.6268 17.3284 6 16.5 6Z" stroke="black" stroke-width="1.4" stroke-linejoin="round"/>
<path d="M15 9V5C15 4.20435 14.6839 3.44129 14.1213 2.87868C13.5587 2.31607 12.7956 2 12 2C11.2044 2 10.4413 2.31607 9.87868 2.87868C9.31607 3.44129 9 4.20435 9 5V9" stroke="black" stroke-width="1.4" stroke-linejoin="round"/>
</svg>
