<svg width="140" height="28" viewBox="0 0 140 28" fill="none" xmlns="http://www.w3.org/2000/svg">
<g clip-path="url(#clip0_9295_52279)">
<path d="M97.8567 14.6029L92.9539 3.11133H91.2012V17.0388H93.2189V8.37434L96.7966 16.6033C97.0134 17.0009 97.417 17.247 97.8506 17.247C98.2843 17.247 98.6939 17.0009 98.9107 16.5907L102.482 8.38065V17.0451H104.5V3.11133H102.747L97.8446 14.6029H97.8567Z" fill="white"/>
<path d="M112.312 3.11133C111.704 3.11133 111.155 3.49627 110.927 4.08316L105.831 17.0388H107.957L109.252 13.6815H115.275L116.57 17.0388H118.775L113.697 4.08947C113.462 3.49627 112.92 3.11764 112.306 3.11764L112.312 3.11133ZM114.546 11.7631H109.981L112.27 5.80594L114.546 11.7631Z" fill="white"/>
<path d="M122.136 3.11133H120.118V17.0388H129.261V15.0951H122.136V3.11133Z" fill="white"/>
<path d="M132.875 15.0951V3.11133H130.857V17.0388H140V15.0951H132.875Z" fill="white"/>
<path d="M83.9013 21.0898H83.4014V26.0247H83.9013V23.5951H84.8228V23.0777H83.9013V21.0898Z" fill="white"/>
<path d="M80.8535 24.9328C81.0703 24.9328 81.2811 24.8886 81.4678 24.8066C81.6545 24.7245 81.8232 24.6046 81.9617 24.4595C82.1003 24.3143 82.2147 24.1376 82.293 23.942C82.3713 23.7464 82.4074 23.5255 82.4074 23.292C82.4074 23.0333 82.3592 22.8061 82.2629 22.5979C82.1906 22.4401 82.0942 22.295 81.9798 22.1751H82.7086V21.6702H81.1125V20.8877H80.6005V21.6702H78.9863V22.1751H79.7211C79.6067 22.295 79.5103 22.4401 79.4381 22.5979C79.3477 22.7998 79.2995 23.0333 79.2995 23.2857C79.2995 23.5192 79.3417 23.7338 79.42 23.9357C79.4983 24.1376 79.6067 24.308 79.7513 24.4532C79.8898 24.5983 80.0584 24.7119 80.2451 24.8002C80.4319 24.8823 80.6427 24.9265 80.8595 24.9265L80.8535 24.9328ZM81.2751 22.2697C81.3956 22.3202 81.51 22.3959 81.6003 22.4843C81.6907 22.5789 81.769 22.6925 81.8232 22.825C81.8774 22.9576 81.9075 23.1153 81.9075 23.292C81.9075 23.4687 81.8774 23.6391 81.8172 23.7779C81.7569 23.9168 81.6786 24.0367 81.5823 24.1313C81.4859 24.226 81.3715 24.3017 81.245 24.3459C80.992 24.4405 80.7089 24.4405 80.456 24.3459C80.3295 24.2954 80.2211 24.226 80.1187 24.1313C80.0223 24.0367 79.944 23.9168 79.8838 23.7779C79.8235 23.6328 79.7934 23.475 79.7934 23.292C79.7934 23.109 79.8235 22.9576 79.8777 22.825C79.9319 22.6925 80.0042 22.5789 80.1006 22.4843C80.1909 22.3896 80.3054 22.3202 80.4258 22.2697C80.5463 22.2192 80.6788 22.1877 80.8053 22.1877H80.8896C81.0221 22.1877 81.1486 22.2192 81.2751 22.2697Z" fill="white"/>
<path d="M80.372 25.5635H79.8721V27.6018H84.034V27.0969H80.372V25.5635Z" fill="white"/>
<path d="M85.6958 23.7588C86.1175 23.5948 86.521 23.4181 86.8884 23.235C87.2498 23.0584 87.6112 22.8501 87.9726 22.6166C88.3339 22.8501 88.7013 23.0584 89.0567 23.235C89.4241 23.4181 89.8277 23.5948 90.2493 23.7588L90.2854 23.7714L90.5143 23.3486L90.4601 23.3297C90.2493 23.2414 90.0445 23.1593 89.8517 23.071C89.6711 22.9889 89.4904 22.9006 89.3217 22.8122C89.1591 22.7302 88.9965 22.6419 88.8459 22.5535C88.6893 22.4652 88.5387 22.3705 88.4002 22.2758C88.34 22.238 88.2978 22.1875 88.2677 22.1244C88.2376 22.0613 88.2255 21.9919 88.2255 21.9288V21.7773H90.2252V21.2725H85.7139V21.7773H87.7136V21.9288C87.7136 21.9919 87.6955 22.0613 87.6714 22.1244C87.6413 22.1875 87.5991 22.238 87.5389 22.2822C87.2498 22.4778 86.9426 22.6545 86.6174 22.8186C86.2921 22.9826 85.9066 23.153 85.479 23.336L85.4248 23.3613L85.6537 23.7841L85.6898 23.7714L85.6958 23.7588Z" fill="white"/>
<path d="M85.0098 24.497H87.7141V25.1092C87.4852 25.1281 87.2744 25.1786 87.0877 25.248C86.8829 25.3237 86.7083 25.4247 86.5577 25.5509C86.4131 25.6771 86.2927 25.8223 86.2084 25.9926C86.124 26.163 86.0819 26.346 86.0819 26.548C86.0819 26.7625 86.1301 26.9582 86.2264 27.1412C86.3228 27.3179 86.4553 27.4756 86.624 27.6018C86.7926 27.728 86.9914 27.829 87.2202 27.8984C87.4491 27.9678 87.7021 28.0057 87.9731 28.0057C88.2441 28.0057 88.4971 27.9678 88.726 27.8984C88.9549 27.829 89.1536 27.728 89.3223 27.6018C89.4909 27.4756 89.6234 27.3179 89.7198 27.1412C89.8162 26.9645 89.8644 26.7625 89.8644 26.548C89.8644 26.346 89.8222 26.163 89.7379 25.9926C89.6535 25.8286 89.5391 25.6771 89.3885 25.5509C89.238 25.4247 89.0633 25.3237 88.8585 25.248C88.6718 25.1786 88.461 25.1281 88.2321 25.1092V24.497H90.9485V23.9922H85.0158V24.497H85.0098ZM88.5152 25.6645C88.6838 25.7087 88.8344 25.7718 88.9609 25.8538C89.0874 25.9358 89.1837 26.0368 89.256 26.1504C89.3283 26.264 89.3584 26.3965 89.3584 26.5417C89.3584 26.6868 89.3223 26.8193 89.25 26.9329C89.1777 27.0528 89.0814 27.1475 88.9549 27.2295C88.8284 27.3115 88.6778 27.3747 88.5092 27.4188C88.1719 27.5072 87.7623 27.5072 87.419 27.4188C87.2503 27.3747 87.0998 27.3115 86.9733 27.2295C86.8528 27.1475 86.7504 27.0465 86.6782 26.9329C86.6059 26.8193 86.5697 26.6868 86.5697 26.5417C86.5697 26.3965 86.6059 26.264 86.6782 26.1504C86.7504 26.0305 86.8468 25.9295 86.9733 25.8538C87.0998 25.7718 87.2443 25.7087 87.419 25.6645C87.5876 25.6203 87.7744 25.5951 87.9671 25.5951C88.1598 25.5951 88.3405 25.6203 88.5092 25.6645H88.5152Z" fill="white"/>
<path d="M93.2425 23.2541C93.4955 23.5318 93.7484 23.7842 94.0014 24.0114C94.2664 24.2512 94.5555 24.4847 94.8627 24.7119L94.8988 24.7371L95.1879 24.3522L95.1458 24.3206C94.8507 24.0997 94.5856 23.8789 94.3447 23.6706C94.1098 23.4561 93.899 23.2415 93.7304 23.0269C93.5677 22.825 93.4894 22.6231 93.4894 22.4085V21.8847H94.9711V21.3799H91.5079V21.8847H92.9895V22.4085C92.9895 22.5095 92.9654 22.6104 92.9293 22.724C92.8871 22.8313 92.8269 22.9323 92.7486 23.0269C92.5619 23.2667 92.333 23.5129 92.0801 23.7527C91.8271 23.9925 91.55 24.2133 91.2669 24.409L91.2188 24.4405L91.5259 24.8065L91.5621 24.7813C91.8632 24.573 92.1644 24.3332 92.4655 24.0619C92.7486 23.8031 93.0136 23.5318 93.2545 23.2415L93.2425 23.2541Z" fill="white"/>
<path d="M92.2129 25.7031H95.9472V27.7035H96.4411V25.1982H92.2129V25.7031Z" fill="white"/>
<path d="M96.4472 21.0898H95.9473V24.9204H96.4472V21.0898Z" fill="white"/>
<path d="M102.489 22.9576C102.549 22.4464 102.591 21.9101 102.627 21.3673V21.3105H98.116V21.8154H102.097C102.085 21.9858 102.073 22.1688 102.055 22.3581C102.037 22.5727 102.013 22.7935 101.983 23.027C101.953 23.2668 101.923 23.5003 101.892 23.7212C101.862 23.9357 101.826 24.1503 101.79 24.3649H97.3691V24.8697H100.007V27.7095H100.519V24.8697H103.302V24.3649H102.278C102.356 23.9231 102.429 23.4498 102.483 22.9639L102.489 22.9576Z" fill="white"/>
<path d="M108.867 26.3082L106.295 21.4238H105.656V27.0844H106.156V22.2L108.728 27.0844H109.366V21.4238H108.867V26.3082Z" fill="white"/>
<path d="M113.179 23.3675C113.023 23.1782 112.83 23.0268 112.613 22.9195C112.396 22.8122 112.149 22.7617 111.89 22.7617C111.631 22.7617 111.39 22.8122 111.168 22.9195C110.951 23.0268 110.758 23.1719 110.601 23.3675C110.445 23.5569 110.318 23.7903 110.234 24.068C110.15 24.3394 110.102 24.6486 110.102 24.9767C110.102 25.3049 110.144 25.6204 110.234 25.8918C110.318 26.1631 110.445 26.3966 110.601 26.5859C110.758 26.7752 110.951 26.9267 111.168 27.034C111.384 27.1413 111.631 27.1917 111.89 27.1917C112.149 27.1917 112.39 27.1413 112.613 27.034C112.83 26.9267 113.023 26.7816 113.179 26.5859C113.336 26.3966 113.462 26.1631 113.547 25.8918C113.631 25.6204 113.679 25.3112 113.679 24.9767C113.679 24.6423 113.637 24.3394 113.547 24.068C113.462 23.7903 113.336 23.5569 113.179 23.3675ZM111.89 26.6932C111.692 26.6932 111.517 26.649 111.354 26.567C111.198 26.485 111.059 26.3651 110.951 26.2136C110.836 26.0621 110.752 25.8791 110.692 25.6709C110.632 25.4626 110.601 25.2292 110.601 24.9767C110.601 24.7243 110.632 24.4971 110.692 24.2826C110.752 24.0743 110.836 23.8913 110.951 23.7399C111.059 23.5884 111.198 23.4748 111.354 23.3865C111.511 23.3044 111.692 23.2603 111.89 23.2603C112.089 23.2603 112.264 23.3044 112.426 23.3865C112.583 23.4685 112.722 23.5884 112.83 23.7399C112.938 23.8913 113.029 24.0743 113.089 24.2826C113.149 24.4908 113.179 24.7243 113.179 24.9767C113.179 25.2292 113.149 25.4626 113.089 25.6709C113.029 25.8791 112.938 26.0621 112.83 26.2136C112.716 26.3651 112.583 26.485 112.426 26.567C112.27 26.649 112.089 26.6932 111.89 26.6932Z" fill="white"/>
<path d="M114.745 26.4346C114.631 26.4346 114.534 26.4724 114.462 26.5545C114.39 26.6365 114.354 26.7375 114.354 26.87C114.354 27.0025 114.39 27.1035 114.468 27.1855C114.54 27.2676 114.637 27.3054 114.751 27.3054C114.865 27.3054 114.962 27.2613 115.034 27.1855C115.106 27.1035 115.143 27.0025 115.143 26.87C115.143 26.7375 115.106 26.6365 115.034 26.5545C114.962 26.4724 114.865 26.4346 114.751 26.4346H114.745Z" fill="white"/>
<path d="M116.39 22.3325L116.667 22.768L117.558 22.0927V27.0844H118.058V21.4238H117.588L116.39 22.3325Z" fill="white"/>
<path d="M126.026 24.6046L125.912 25.507H126.394V25.4628C126.49 24.8128 126.563 24.1502 126.629 23.4876C126.689 22.825 126.731 22.1624 126.755 21.5187V21.4619H122.244V21.9668H126.237C126.231 22.1561 126.219 22.3643 126.207 22.5915C126.195 22.825 126.177 23.0711 126.153 23.3298H122.178V23.8347H126.111C126.087 24.0871 126.057 24.3458 126.02 24.6172L126.026 24.6046Z" fill="white"/>
<path d="M124.37 24.5479H123.858V26.3148H121.539V26.8133H127.472V26.3148H124.37V24.5479Z" fill="white"/>
<path d="M130.857 25.1287C130.61 24.8321 130.381 24.5039 130.176 24.1569C130.128 24.0748 130.092 23.9739 130.068 23.8666C130.044 23.753 130.038 23.6268 130.038 23.5069V22.4404H131.532V21.9355H130.05V21.0205H129.538V21.9355H128.056V22.4404H129.55V23.5006C129.55 23.6331 129.538 23.7656 129.52 23.8918C129.502 24.0117 129.46 24.1253 129.406 24.2263C129.207 24.567 128.978 24.8952 128.737 25.2044C128.49 25.5136 128.195 25.8292 127.858 26.1384L127.815 26.1762L128.147 26.5233L128.177 26.4918C128.532 26.1699 128.851 25.8418 129.116 25.5136C129.369 25.2044 129.598 24.8889 129.815 24.567C129.917 24.7122 130.026 24.8636 130.14 25.0025C130.267 25.1602 130.393 25.318 130.52 25.4695C130.646 25.6209 130.791 25.7787 130.941 25.9364C131.086 26.0879 131.243 26.252 131.417 26.4224L131.453 26.4539L131.761 26.1005L131.724 26.0627C131.405 25.7408 131.116 25.4253 130.875 25.1287H130.857Z" fill="white"/>
<path d="M132.803 21.0898H132.303V27.7033H132.803V24.1442H133.76V23.6267H132.803V21.0898Z" fill="white"/>
<path d="M137.127 23.955V23.3113H139.061V21.2793H134.688V23.3113H136.621V23.955H133.917V24.4598H139.85V23.955H137.133H137.127ZM138.561 21.7778V22.8065H135.182V21.7778H138.561Z" fill="white"/>
<path d="M135.182 26.5227H139.06V24.9766H134.682V25.4751H138.56V26.0304H134.682V27.6333H139.193V27.1411H135.182V26.5227Z" fill="white"/>
<path d="M4.74617 11.4605L2.9513 13.6313V16.7361H0V2.90332H2.94528V9.42214L8.2275 2.90332H11.8413L6.65548 9.16341L12.1124 16.7298H8.43831L4.74617 11.4541V11.4605Z" fill="white"/>
<path d="M40.692 16.7361L38.1322 12.3755H35.7832V16.7361H32.8379V2.90332H38.1502C41.5051 2.90332 43.4626 4.77125 43.4626 7.63625C43.4626 9.53573 42.6073 10.9935 41.0473 11.757L44.107 16.7298H40.692V16.7361ZM35.7832 9.64301H38.0177C39.5717 9.64301 40.5113 8.94885 40.5113 7.64256C40.5113 6.33627 39.5717 5.64211 38.0177 5.64211H35.7832V9.64932V9.64301Z" fill="white"/>
<path d="M44.7451 9.81327C44.7451 5.62305 47.7386 2.5498 51.8041 2.5498C55.43 2.5498 57.8633 4.84054 58.3994 7.76234H55.418C55.1108 6.43712 53.7677 5.38325 51.8704 5.38325C49.4732 5.38325 47.6904 7.23225 47.6904 9.81327C47.6904 12.3943 49.4732 14.2433 51.8704 14.2433C53.7677 14.2433 55.3216 12.937 55.5445 11.6812H58.5259C58.1223 14.4642 55.4662 17.0767 51.8041 17.0767C47.7386 17.0767 44.7451 14.0035 44.7451 9.81327Z" fill="white"/>
<path d="M71.9572 2.90332V16.7361H69.0119V11.1197H63.1816V16.7361H60.2363V2.90332H63.1816V8.38721H69.0119V2.90332H71.9572Z" fill="white"/>
<path d="M82.371 14.0541H77.2514L76.3299 16.7361H73.2822L78.4018 2.90332H81.4615L86.5811 16.7361H83.2925L82.371 14.0541ZM81.4615 11.3721L79.8112 6.55083L78.1609 11.3721H81.4676H81.4615Z" fill="white"/>
<path d="M21.3518 0C15.7804 0 11.6667 4.16498 11.6426 9.8508C11.6606 15.5429 15.7804 19.7016 21.3518 19.7016C26.9231 19.7016 31.0368 15.5366 31.0609 9.8508C31.0429 4.15867 26.9231 0 21.3518 0ZM21.3518 15.9153C18.0993 15.9153 15.678 13.3658 15.66 9.8508C15.678 6.33581 18.0993 3.78634 21.3518 3.78634C24.6042 3.78634 27.0255 6.33581 27.0435 9.8508C27.0255 13.3658 24.6042 15.9153 21.3518 15.9153Z" fill="url(#paint0_radial_9295_52279)"/>
</g>
<defs>
<radialGradient id="paint0_radial_9295_52279" cx="0" cy="0" r="1" gradientUnits="userSpaceOnUse" gradientTransform="translate(21.3517 9.8508) scale(9.55859 10.0149)">
<stop stop-color="#231815"/>
<stop offset="0.87" stop-color="#E94846"/>
</radialGradient>
<clipPath id="clip0_9295_52279">
<rect width="140" height="28" fill="white"/>
</clipPath>
</defs>
</svg>
