<svg width="174" height="174" viewBox="0 0 174 174" fill="none" xmlns="http://www.w3.org/2000/svg">
<rect width="174" height="174" fill="#EEEEEE"/>
<path d="M107.5 98.5V74.5C107.5 73.7044 107.184 72.9413 106.621 72.3787C106.059 71.8161 105.296 71.5 104.5 71.5H71.5C70.7044 71.5 69.9413 71.8161 69.3787 72.3787C68.8161 72.9413 68.5 73.7044 68.5 74.5V101.5C68.5 102.296 68.8161 103.059 69.3787 103.621C69.9413 104.184 70.7044 104.5 71.5 104.5H104.5C105.296 104.5 106.059 104.184 106.621 103.621C107.184 103.059 107.5 102.296 107.5 101.5V98.5ZM104.5 74.5V94.8812L99.1188 89.5C98.554 88.9435 97.7929 88.6315 97 88.6315C96.2071 88.6315 95.446 88.9435 94.8812 89.5L91 93.3812L82.6188 85C82.054 84.4435 81.2929 84.1315 80.5 84.1315C79.7071 84.1315 78.946 84.4435 78.3812 85L71.5 91.8812V74.5H104.5ZM104.5 101.5H71.5V96.1188L80.5 87.1188L88.8812 95.5C89.1585 95.7801 89.4885 96.0024 89.8521 96.1541C90.2158 96.3058 90.6059 96.3839 91 96.3839C91.3941 96.3839 91.7842 96.3058 92.1479 96.1541C92.5115 96.0024 92.8415 95.7801 93.1188 95.5L97 91.6188L104.5 99.1188V101.5ZM91.6562 84.3438C91.4466 84.1349 91.2807 83.8864 91.168 83.6128C91.0554 83.3392 90.9982 83.0459 91 82.75C91 82.1533 91.2371 81.581 91.659 81.159C92.081 80.7371 92.6533 80.5 93.25 80.5C93.8467 80.5 94.419 80.7371 94.841 81.159C95.2629 81.581 95.5 82.1533 95.5 82.75C95.5 83.3467 95.2629 83.919 94.841 84.341C94.419 84.7629 93.8467 85 93.25 85C92.6539 84.9954 92.0827 84.7603 91.6562 84.3438Z" fill="white"/>
</svg>
