<svg width="200" height="40" viewBox="0 0 200 40" fill="none" xmlns="http://www.w3.org/2000/svg">
<path d="M139.795 20.8618L132.791 4.44531H130.287V24.3416H133.17V11.9639L138.281 23.7196C138.591 24.2875 139.167 24.6391 139.787 24.6391C140.406 24.6391 140.991 24.2875 141.301 23.7016L146.403 11.9729V24.3507H149.286V4.44531H146.782L139.778 20.8618H139.795Z" fill="white"/>
<path d="M160.446 4.44531C159.577 4.44531 158.794 4.99523 158.467 5.83364L151.187 24.3416H154.225L156.075 19.5456H164.679L166.529 24.3416H169.678L162.425 5.84265C162.089 4.99523 161.315 4.45433 160.437 4.45433L160.446 4.44531ZM163.638 16.805H157.116L160.385 8.29476L163.638 16.805Z" fill="white"/>
<path d="M174.479 4.44531H171.597V24.3416H184.658V21.565H174.479V4.44531Z" fill="white"/>
<path d="M189.821 21.565V4.44531H186.938V24.3416H200V21.565H189.821Z" fill="white"/>
<path d="M119.859 30.1289H119.145V37.1787H119.859V33.7079H121.175V32.9687H119.859V30.1289Z" fill="white"/>
<path d="M115.505 35.6185C115.815 35.6185 116.116 35.5554 116.383 35.4382C116.649 35.321 116.89 35.1497 117.088 34.9424C117.286 34.735 117.45 34.4826 117.561 34.2032C117.673 33.9237 117.725 33.6082 117.725 33.2746C117.725 32.905 117.656 32.5804 117.518 32.2829C117.415 32.0576 117.278 31.8502 117.114 31.6789H118.155V30.9577H115.875V29.8398H115.144V30.9577H112.838V31.6789H113.887C113.724 31.8502 113.586 32.0576 113.483 32.2829C113.354 32.5714 113.285 32.905 113.285 33.2656C113.285 33.5991 113.345 33.9057 113.457 34.1941C113.569 34.4826 113.724 34.726 113.93 34.9334C114.128 35.1407 114.369 35.303 114.636 35.4292C114.903 35.5464 115.204 35.6095 115.514 35.6095L115.505 35.6185ZM116.107 31.8142C116.279 31.8863 116.443 31.9945 116.572 32.1207C116.701 32.2559 116.813 32.4182 116.89 32.6075C116.968 32.7968 117.011 33.0222 117.011 33.2746C117.011 33.527 116.968 33.7704 116.882 33.9688C116.796 34.1671 116.684 34.3384 116.546 34.4736C116.408 34.6088 116.245 34.717 116.064 34.7801C115.703 34.9153 115.298 34.9153 114.937 34.7801C114.756 34.708 114.602 34.6088 114.455 34.4736C114.318 34.3384 114.206 34.1671 114.12 33.9688C114.034 33.7614 113.991 33.536 113.991 33.2746C113.991 33.0132 114.034 32.7968 114.111 32.6075C114.189 32.4182 114.292 32.2559 114.429 32.1207C114.559 31.9854 114.722 31.8863 114.894 31.8142C115.066 31.742 115.255 31.697 115.436 31.697H115.557C115.746 31.697 115.927 31.742 116.107 31.8142Z" fill="white"/>
<path d="M114.817 36.5195H114.103V39.4314H120.048V38.7102H114.817V36.5195Z" fill="white"/>
<path d="M122.423 33.9426C123.025 33.7082 123.602 33.4558 124.127 33.1943C124.643 32.9419 125.159 32.6444 125.675 32.3108C126.192 32.6444 126.716 32.9419 127.224 33.1943C127.749 33.4558 128.325 33.7082 128.928 33.9426L128.979 33.9606L129.306 33.3566L129.229 33.3295C128.928 33.2033 128.635 33.0861 128.36 32.9599C128.102 32.8427 127.844 32.7165 127.603 32.5903C127.37 32.4731 127.138 32.3469 126.923 32.2207C126.699 32.0945 126.484 31.9593 126.286 31.824C126.2 31.7699 126.14 31.6978 126.097 31.6077C126.054 31.5175 126.037 31.4183 126.037 31.3282V31.1118H128.893V30.3906H122.449V31.1118H125.305V31.3282C125.305 31.4183 125.279 31.5175 125.245 31.6077C125.202 31.6978 125.142 31.7699 125.056 31.833C124.643 32.1125 124.204 32.3649 123.739 32.5993C123.275 32.8337 122.724 33.0771 122.113 33.3386L122.036 33.3746L122.363 33.9786L122.414 33.9606L122.423 33.9426Z" fill="white"/>
<path d="M121.442 34.9966H125.305V35.8711C124.978 35.8981 124.677 35.9702 124.41 36.0694C124.118 36.1776 123.868 36.3218 123.653 36.5021C123.447 36.6824 123.275 36.8898 123.154 37.1332C123.034 37.3766 122.973 37.638 122.973 37.9265C122.973 38.233 123.042 38.5125 123.18 38.7739C123.318 39.0263 123.507 39.2517 123.748 39.432C123.989 39.6123 124.273 39.7566 124.6 39.8557C124.927 39.9549 125.288 40.009 125.675 40.009C126.062 40.009 126.424 39.9549 126.751 39.8557C127.078 39.7566 127.362 39.6123 127.603 39.432C127.844 39.2517 128.033 39.0263 128.171 38.7739C128.308 38.5215 128.377 38.233 128.377 37.9265C128.377 37.638 128.317 37.3766 128.196 37.1332C128.076 36.8988 127.912 36.6824 127.697 36.5021C127.482 36.3218 127.233 36.1776 126.94 36.0694C126.673 35.9702 126.372 35.8981 126.045 35.8711V34.9966H129.926V34.2754H121.45V34.9966H121.442ZM126.45 36.6644C126.691 36.7275 126.906 36.8176 127.086 36.9348C127.267 37.052 127.405 37.1963 127.508 37.3586C127.611 37.5208 127.654 37.7101 127.654 37.9175C127.654 38.1248 127.603 38.3142 127.499 38.4764C127.396 38.6477 127.258 38.7829 127.078 38.9001C126.897 39.0173 126.682 39.1075 126.441 39.1706C125.959 39.2968 125.374 39.2968 124.884 39.1706C124.643 39.1075 124.428 39.0173 124.247 38.9001C124.075 38.7829 123.929 38.6387 123.825 38.4764C123.722 38.3142 123.67 38.1248 123.67 37.9175C123.67 37.7101 123.722 37.5208 123.825 37.3586C123.929 37.1873 124.066 37.043 124.247 36.9348C124.428 36.8176 124.634 36.7275 124.884 36.6644C125.125 36.6013 125.391 36.5652 125.667 36.5652C125.942 36.5652 126.2 36.6013 126.441 36.6644H126.45Z" fill="white"/>
<path d="M133.204 33.2205C133.566 33.6171 133.927 33.9777 134.288 34.3023C134.667 34.6448 135.08 34.9784 135.519 35.3029L135.571 35.339L135.984 34.7891L135.923 34.744C135.502 34.4285 135.123 34.1129 134.779 33.8154C134.443 33.5089 134.142 33.2024 133.901 32.8959C133.669 32.6074 133.557 32.3189 133.557 32.0124V31.2642H135.674V30.543H130.726V31.2642H132.843V32.0124C132.843 32.1567 132.808 32.3009 132.757 32.4632C132.697 32.6164 132.611 32.7607 132.499 32.8959C132.232 33.2385 131.905 33.5901 131.544 33.9326C131.182 34.2752 130.786 34.5907 130.382 34.8702L130.313 34.9153L130.752 35.4382L130.804 35.4021C131.234 35.1046 131.664 34.762 132.094 34.3744C132.499 34.0048 132.877 33.6171 133.222 33.2024L133.204 33.2205Z" fill="white"/>
<path d="M131.733 36.7193H137.068V39.577H137.773V35.998H131.733V36.7193Z" fill="white"/>
<path d="M137.782 30.1289H137.068V35.6011H137.782V30.1289Z" fill="white"/>
<path d="M146.412 32.7963C146.498 32.0661 146.558 31.2998 146.61 30.5245V30.4434H140.165V31.1646H145.853C145.835 31.408 145.818 31.6694 145.792 31.9399C145.767 32.2464 145.732 32.5619 145.689 32.8955C145.646 33.238 145.603 33.5716 145.56 33.8871C145.517 34.1936 145.465 34.5002 145.414 34.8067H139.098V35.5279H142.867V39.5847H143.598V35.5279H147.573V34.8067H146.111C146.223 34.1756 146.326 33.4995 146.403 32.8053L146.412 32.7963Z" fill="white"/>
<path d="M155.524 37.5832L151.85 30.6055H150.938V38.692H151.652V31.7143L155.326 38.692H156.238V30.6055H155.524V37.5832Z" fill="white"/>
<path d="M161.685 33.383C161.461 33.1126 161.186 32.8962 160.876 32.743C160.566 32.5897 160.213 32.5176 159.843 32.5176C159.473 32.5176 159.129 32.5897 158.811 32.743C158.501 32.8962 158.226 33.1036 158.002 33.383C157.778 33.6535 157.598 33.987 157.477 34.3837C157.357 34.7714 157.288 35.2131 157.288 35.6819C157.288 36.1507 157.348 36.6014 157.477 36.9891C157.598 37.3767 157.778 37.7103 158.002 37.9807C158.226 38.2512 158.501 38.4675 158.811 38.6208C159.121 38.7741 159.473 38.8462 159.843 38.8462C160.213 38.8462 160.558 38.7741 160.876 38.6208C161.186 38.4675 161.461 38.2602 161.685 37.9807C161.908 37.7103 162.089 37.3767 162.21 36.9891C162.33 36.6014 162.399 36.1597 162.399 35.6819C162.399 35.2041 162.339 34.7714 162.21 34.3837C162.089 33.987 161.908 33.6535 161.685 33.383ZM159.843 38.134C159.559 38.134 159.31 38.0709 159.078 37.9537C158.854 37.8365 158.656 37.6652 158.501 37.4488C158.338 37.2325 158.217 36.971 158.131 36.6735C158.045 36.376 158.002 36.0425 158.002 35.6819C158.002 35.3213 158.045 34.9967 158.131 34.6902C158.217 34.3927 158.338 34.1313 158.501 33.9149C158.656 33.6986 158.854 33.5363 159.078 33.4101C159.301 33.2929 159.559 33.2298 159.843 33.2298C160.127 33.2298 160.377 33.2929 160.609 33.4101C160.833 33.5273 161.031 33.6986 161.186 33.9149C161.34 34.1313 161.47 34.3927 161.556 34.6902C161.642 34.9877 161.685 35.3213 161.685 35.6819C161.685 36.0425 161.642 36.376 161.556 36.6735C161.47 36.971 161.34 37.2325 161.186 37.4488C161.022 37.6652 160.833 37.8365 160.609 37.9537C160.385 38.0709 160.127 38.134 159.843 38.134Z" fill="white"/>
<path d="M163.922 37.7637C163.758 37.7637 163.621 37.8178 163.517 37.935C163.414 38.0522 163.363 38.1964 163.363 38.3857C163.363 38.575 163.414 38.7193 163.526 38.8365C163.629 38.9537 163.767 39.0078 163.93 39.0078C164.094 39.0078 164.232 38.9447 164.335 38.8365C164.438 38.7193 164.49 38.575 164.49 38.3857C164.49 38.1964 164.438 38.0522 164.335 37.935C164.232 37.8178 164.094 37.7637 163.93 37.7637H163.922Z" fill="white"/>
<path d="M166.271 31.9036L166.667 32.5257L167.94 31.5611V38.692H168.654V30.6055H167.983L166.271 31.9036Z" fill="white"/>
<path d="M180.038 35.1497L179.874 36.4388H180.563V36.3757C180.7 35.4472 180.804 34.5006 180.898 33.554C180.984 32.6074 181.044 31.6608 181.079 30.7413V30.6602H174.634V31.3814H180.339C180.33 31.6518 180.313 31.9493 180.296 32.2739C180.279 32.6074 180.253 32.959 180.218 33.3286H174.54V34.0498H180.158C180.124 34.4104 180.081 34.7801 180.029 35.1677L180.038 35.1497Z" fill="white"/>
<path d="M177.672 35.0684H176.94V37.5926H173.627V38.3048H182.103V37.5926H177.672V35.0684Z" fill="white"/>
<path d="M186.938 35.8981C186.586 35.4744 186.259 35.0056 185.966 34.5098C185.897 34.3926 185.846 34.2484 185.811 34.0951C185.777 33.9328 185.768 33.7525 185.768 33.5812V32.0577H187.902V31.3365H185.785V30.0293H185.054V31.3365H182.937V32.0577H185.071V33.5722C185.071 33.7615 185.054 33.9509 185.028 34.1312C185.002 34.3025 184.942 34.4647 184.865 34.609C184.581 35.0958 184.254 35.5646 183.91 36.0063C183.557 36.448 183.135 36.8988 182.653 37.3405L182.593 37.3946L183.066 37.8905L183.11 37.8454C183.617 37.3856 184.073 36.9168 184.452 36.448C184.813 36.0063 185.14 35.5556 185.45 35.0958C185.596 35.3031 185.751 35.5195 185.915 35.7178C186.095 35.9432 186.276 36.1686 186.457 36.3849C186.637 36.6013 186.844 36.8267 187.059 37.0521C187.265 37.2684 187.489 37.5028 187.739 37.7462L187.79 37.7913L188.229 37.2865L188.177 37.2324C187.721 36.7726 187.308 36.3218 186.964 35.8981H186.938Z" fill="white"/>
<path d="M189.718 30.1289H189.003V39.5767H189.718V34.4922H191.086V33.753H189.718V30.1289Z" fill="white"/>
<path d="M195.896 34.2208V33.3013H198.658V30.3984H192.411V33.3013H195.173V34.2208H191.31V34.942H199.785V34.2208H195.904H195.896ZM197.944 31.1106V32.5801H193.116V31.1106H197.944Z" fill="white"/>
<path d="M193.117 37.8903H198.658V35.6816H192.402V36.3938H197.944V37.1872H192.402V39.477H198.847V38.7738H193.117V37.8903Z" fill="white"/>
<path d="M6.78024 16.371L4.21614 19.4722V23.9076H0V4.14648H4.20754V13.4591L11.7536 4.14648H16.9162L9.50783 13.0895L17.3034 23.8986H12.0547L6.78024 16.3619V16.371Z" fill="white"/>
<path d="M58.1312 23.9076L54.4744 17.6782H51.1187V23.9076H46.9111V4.14648H54.5002C59.2928 4.14648 62.0892 6.81495 62.0892 10.9078C62.0892 13.6214 60.8674 15.7038 58.6389 16.7947L63.0099 23.8986H58.1312V23.9076ZM51.1187 13.7746H54.3109C56.5308 13.7746 57.8731 12.783 57.8731 10.9168C57.8731 9.0507 56.5308 8.05904 54.3109 8.05904H51.1187V13.7836V13.7746Z" fill="white"/>
<path d="M63.9219 14.019C63.9219 8.03293 68.1982 3.64258 74.0062 3.64258C79.186 3.64258 82.6622 6.91506 83.428 11.0891H79.1688C78.73 9.19588 76.8112 7.69036 74.1008 7.69036C70.6763 7.69036 68.1294 10.3318 68.1294 14.019C68.1294 17.7061 70.6763 20.3476 74.1008 20.3476C76.8112 20.3476 79.0312 18.4814 79.3495 16.6874H83.6087C83.0322 20.6631 79.2377 24.3953 74.0062 24.3953C68.1982 24.3953 63.9219 20.005 63.9219 14.019Z" fill="white"/>
<path d="M102.796 4.14648V23.9076H98.5888V15.8841H90.2598V23.9076H86.0522V4.14648H90.2598V11.9806H98.5888V4.14648H102.796Z" fill="white"/>
<path d="M117.673 20.0762H110.36L109.043 23.9076H104.689L112.003 4.14648H116.374L123.688 23.9076H118.99L117.673 20.0762ZM116.374 16.2447L114.017 9.35721L111.659 16.2447H116.383H116.374Z" fill="white"/>
<path d="M30.5026 0C22.5435 0 16.6667 5.94997 16.6323 14.0726C16.6581 22.2042 22.5435 28.1451 30.5026 28.1451C38.4616 28.1451 44.3384 22.1952 44.3728 14.0726C44.347 5.94095 38.4616 0 30.5026 0ZM30.5026 22.7361C25.8562 22.7361 22.3973 19.094 22.3714 14.0726C22.3973 9.05116 25.8562 5.40906 30.5026 5.40906C35.1489 5.40906 38.6079 9.05116 38.6337 14.0726C38.6079 19.094 35.1489 22.7361 30.5026 22.7361Z" fill="url(#paint0_radial_5459_25974)"/>
<defs>
<radialGradient id="paint0_radial_5459_25974" cx="0" cy="0" r="1" gradientUnits="userSpaceOnUse" gradientTransform="translate(30.5026 14.0726) scale(13.6551 14.307)">
<stop stop-color="#231815"/>
<stop offset="0.87" stop-color="#E94846"/>
</radialGradient>
</defs>
</svg>
