<svg width="20" height="14" viewBox="0 0 20 14" fill="none" xmlns="http://www.w3.org/2000/svg">
<path fill-rule="evenodd" clip-rule="evenodd" d="M0 0H20V14H0V0Z" fill="white"/>
<path fill-rule="evenodd" clip-rule="evenodd" d="M14.7715 12.3668L15.6676 11.0234L16.1991 11.3859L15.3029 12.7292L14.7715 12.3668Z" fill="black"/>
<path fill-rule="evenodd" clip-rule="evenodd" d="M15.8115 10.8043L16.7077 9.46094L17.2391 9.82338L16.343 11.1667L15.8115 10.8043Z" fill="black"/>
<path fill-rule="evenodd" clip-rule="evenodd" d="M14.0273 11.859L14.9235 10.5156L15.4549 10.8781L14.5588 12.2214L14.0273 11.859Z" fill="black"/>
<path fill-rule="evenodd" clip-rule="evenodd" d="M15.0674 10.2965L15.9635 8.95312L16.495 9.31556L15.5988 10.6589L15.0674 10.2965Z" fill="black"/>
<path fill-rule="evenodd" clip-rule="evenodd" d="M13.2832 11.3512L14.1793 10.0078L14.7108 10.3703L13.8146 11.7136L13.2832 11.3512Z" fill="black"/>
<path fill-rule="evenodd" clip-rule="evenodd" d="M14.3232 9.78866L15.2194 8.44531L15.7508 8.80775L14.8547 10.1511L14.3232 9.78866Z" fill="black"/>
<path fill-rule="evenodd" clip-rule="evenodd" d="M3.29315 9.46094L5.22882 12.3626L4.69739 12.725L2.76172 9.82338L3.29315 9.46094Z" fill="black"/>
<path fill-rule="evenodd" clip-rule="evenodd" d="M5.07636 10.5156L5.9725 11.859L5.44106 12.2214L4.54492 10.8781L5.07636 10.5156Z" fill="black"/>
<path fill-rule="evenodd" clip-rule="evenodd" d="M4.03632 8.95312L4.93246 10.2965L4.40103 10.6589L3.50488 9.31556L4.03632 8.95312Z" fill="black"/>
<path fill-rule="evenodd" clip-rule="evenodd" d="M4.78046 8.44531L6.71613 11.3469L6.18469 11.7094L4.24902 8.80775L4.78046 8.44531Z" fill="black"/>
<path fill-rule="evenodd" clip-rule="evenodd" d="M10.0611 10.5023C8.11541 10.5023 6.53809 8.90618 6.53809 6.93724C6.53809 6.30138 6.70259 5.7044 6.99089 5.1875C6.86812 5.43594 6.79905 5.71629 6.79905 6.01296C6.79905 7.03389 7.61693 7.72948 8.62583 7.72948C9.06164 7.72948 9.42094 7.64107 9.73494 7.2513C9.75699 7.22156 9.77897 7.19231 9.80091 7.16358L9.86661 7.0789C9.88848 7.05119 9.91034 7.02401 9.93219 6.99735L9.99778 6.91901C10.4135 6.43317 10.8384 6.145 11.4312 6.145C12.4041 6.145 13.3207 6.67899 13.1928 8.05958C13.1475 8.54741 12.998 8.99189 12.6828 9.31398L12.6872 9.31392C12.0421 10.0433 11.1046 10.5023 10.0611 10.5023Z" fill="#0047A0"/>
<path fill-rule="evenodd" clip-rule="evenodd" d="M9.93853 3.5C11.8843 3.5 13.4616 5.09614 13.4616 7.06507C13.4616 7.70094 13.2971 8.29792 13.0088 8.81481C13.1316 8.56638 13.2006 8.28603 13.2006 7.98935C13.2006 6.96842 12.3827 6.27283 11.3738 6.27283C10.938 6.27283 10.5787 6.36125 10.2647 6.75102C9.7576 7.43504 9.28611 7.85731 8.56845 7.85731C7.59558 7.85731 6.67894 7.32332 6.80692 5.94274C6.85214 5.4549 7.00163 5.01042 7.31691 4.68834L7.31251 4.6884C7.95761 3.95902 8.8951 3.5 9.93853 3.5Z" fill="#CD2E3A"/>
<path fill-rule="evenodd" clip-rule="evenodd" d="M14.8547 3.84375L15.7508 5.1871L15.2194 5.54954L14.3232 4.20619L14.8547 3.84375Z" fill="black"/>
<path fill-rule="evenodd" clip-rule="evenodd" d="M13.8146 2.28906L14.7108 3.63241L14.1793 3.99485L13.2832 2.6515L13.8146 2.28906Z" fill="black"/>
<path fill-rule="evenodd" clip-rule="evenodd" d="M14.5588 1.78125L16.4944 4.68288L15.963 5.04532L14.0273 2.14369L14.5588 1.78125Z" fill="black"/>
<path fill-rule="evenodd" clip-rule="evenodd" d="M16.343 2.82812L17.2391 4.17147L16.7077 4.53391L15.8115 3.19056L16.343 2.82812Z" fill="black"/>
<path fill-rule="evenodd" clip-rule="evenodd" d="M15.3029 1.27344L16.1991 2.61679L15.6676 2.97923L14.7715 1.63588L15.3029 1.27344Z" fill="black"/>
<path fill-rule="evenodd" clip-rule="evenodd" d="M4.24902 5.19069L6.18469 2.28906L6.71613 2.6515L4.78046 5.55313L4.24902 5.19069Z" fill="black"/>
<path fill-rule="evenodd" clip-rule="evenodd" d="M3.50488 4.68288L5.44055 1.78125L5.97198 2.14369L4.03632 5.04532L3.50488 4.68288Z" fill="black"/>
<path fill-rule="evenodd" clip-rule="evenodd" d="M2.76172 4.17507L4.69739 1.27344L5.22882 1.63588L3.29315 4.53751L2.76172 4.17507Z" fill="black"/>
</svg>
